<svg class="icon_google" xmlns="http://www.w3.org/2000/svg" enable-background="new 0 0 48 48" version="1.1" viewBox="0 0 48 48" xml:space="preserve"><circle cx="24" cy="24" fill="#E3411F" r="24"/><path d="M24.8 25.8c-0.7-0.5-2-1.7-2-2.3 0-0.8 0.2-1.2 1.4-2.2 1.2-1 2.1-2.3 2.1-3.9 0-1.9-0.8-3.7-2.4-4.4h2.4l1.7-1.2h-7.5c-3.4 0-6.6 2.6-6.6 5.5 0 3 2.3 5.5 5.7 5.5 0.2 0 0.5 0 0.7 0 -0.2 0.4-0.4 0.9-0.4 1.4 0 0.8 0.5 1.5 1 2.1 -0.4 0-0.9 0-1.3 0 -4.2 0-7.4 2.7-7.4 5.4 0 2.7 3.5 4.4 7.7 4.4 4.8 0 7.4-2.7 7.4-5.4C27.4 28.6 26.8 27.2 24.8 25.8zM20.7 22.1c-1.9-0.1-3.8-2.2-4.1-4.7 -0.3-2.6 1-4.5 2.9-4.4 1.9 0.1 3.8 2.1 4.1 4.7C24 20.1 22.7 22.1 20.7 22.1zM20 35c-2.9 0-5-1.8-5-4 0-2.2 2.6-4 5.5-3.9 0.7 0 1.3 0.1 1.9 0.3 1.6 1.1 2.7 1.7 3 3 0.1 0.3 0.1 0.5 0.1 0.8C25.5 33.2 24 35 20 35z" fill="#FFFFFF"/><polygon fill="#FFFFFF" points="32.8 22.3 32.8 19.4 30.4 19.4 30.4 22.3 27.5 22.3 27.5 24.6 30.4 24.6 30.4 27.6 32.8 27.6 32.8 24.6 35.7 24.6 35.7 22.3 "/></svg>
